<svg width="244" height="76" viewBox="0 0 244 76" fill="none" xmlns="http://www.w3.org/2000/svg">
<g id="Rectangle 6">
<path d="M0 15.1C0 10.3467 0 7.97002 0.791545 6.10072C1.80449 3.70857 3.70857 1.80449 6.10072 0.791545C7.97002 0 10.3467 0 15.1 0H228.9C233.653 0 236.03 0 237.899 0.791545C240.291 1.80449 242.196 3.70857 243.208 6.10072C244 7.97002 244 10.3467 244 15.1V60.9C244 65.6533 244 68.03 243.208 69.8993C242.196 72.2914 240.291 74.1955 237.899 75.2085C236.03 76 233.653 76 228.9 76H15.1C10.3467 76 7.97002 76 6.10072 75.2085C3.70857 74.1955 1.80449 72.2914 0.791545 69.8993C0 68.03 0 65.6533 0 60.9V15.1Z" fill="#DFAA5B"/>
<path d="M0 15.1C0 10.3467 0 7.97002 0.791545 6.10072C1.80449 3.70857 3.70857 1.80449 6.10072 0.791545C7.97002 0 10.3467 0 15.1 0H228.9C233.653 0 236.03 0 237.899 0.791545C240.291 1.80449 242.196 3.70857 243.208 6.10072C244 7.97002 244 10.3467 244 15.1V60.9C244 65.6533 244 68.03 243.208 69.8993C242.196 72.2914 240.291 74.1955 237.899 75.2085C236.03 76 233.653 76 228.9 76H15.1C10.3467 76 7.97002 76 6.10072 75.2085C3.70857 74.1955 1.80449 72.2914 0.791545 69.8993C0 68.03 0 65.6533 0 60.9V15.1Z" stroke="black"/>
</g>
</svg>
